<svg width="114" height="58" viewBox="0 0 114 58" fill="none" xmlns="http://www.w3.org/2000/svg">
<mask id="mask0_13862_27002" style="mask-type:alpha" maskUnits="userSpaceOnUse" x="1" y="1" width="112" height="56">
<rect width="112" height="56" transform="matrix(-1 0 0 1 113 1)" fill="url(#paint0_linear_13862_27002)"/>
</mask>
<g mask="url(#mask0_13862_27002)">
<path opacity="0.2" d="M108.97 50.2414L113 57H1V1L2.5909 10.6552H4.71212C5.27778 12.2644 6.45152 15.4828 6.62122 15.4828C6.79092 15.4828 7.89393 17.4138 8.42423 18.3793L12.9848 21.2759L15.6364 25.1379L19.8788 21.2759L22.1061 18.3793L25.2879 25.1379H28.5758L31.3333 18.3793C32.3939 17.4138 34.5576 15.4828 34.7273 15.4828C34.897 15.4828 36.2828 13.5517 36.9545 12.5862H38.6515L42.6818 15.4828L46.1818 18.3793L47.7727 25.1379L52.5455 28.0345L54.9848 30.931L57.7424 35.7586L60.3939 42.0948H61.5606L64.7424 42.6983L67.8182 35.7586L70.4697 30.931H72.0606L74.8182 28.0345L78.7424 30.931H82.4545L86.1667 35.7586L89.8788 41.5517L92.6364 47.3448L95.6061 50.2414L99.6364 47.3448L102.818 50.2414L106 53.1379L108.97 50.2414Z" fill="#FF3838"/>
</g>
<path d="M113 57L108.97 50.2414L106 53.1379L102.818 50.2414L99.6364 47.3448L95.6061 50.2414L92.6364 47.3448L89.8788 41.5517L86.1667 35.7586L82.4545 30.931H78.7424L74.8182 28.0345L72.0606 30.931H70.4697L67.8182 35.7586L64.7424 42.6983L61.5606 42.0948H60.3939L57.7424 35.7586L54.9848 30.931L52.5455 28.0345L47.7727 25.1379L46.1818 18.3793L42.6818 15.4828L38.6515 12.5862H36.9545C36.2828 13.5517 34.897 15.4828 34.7273 15.4828C34.5576 15.4828 32.3939 17.4138 31.3333 18.3793L28.5758 25.1379H25.2879L22.1061 18.3793L19.8788 21.2759L15.6364 25.1379L12.9848 21.2759L8.42424 18.3793C7.89393 17.4138 6.79091 15.4828 6.62122 15.4828C6.45152 15.4828 5.27778 12.2644 4.71212 10.6552H2.5909L1 1" stroke="#FF3838" stroke-width="2" stroke-linecap="round" stroke-linejoin="round"/>
<g opacity="0.2">
<rect x="-1" y="1" width="17.25" height="17.25" rx="8.625" transform="matrix(-1 0 0 1 46.25 3.625)" stroke="#FF3838" stroke-width="2"/>
</g>
<rect x="-1" y="1" width="8.5" height="8.5" rx="4.25" transform="matrix(-1 0 0 1 41.875 8)" fill="white"/>
<rect x="-1" y="1" width="8.5" height="8.5" rx="4.25" transform="matrix(-1 0 0 1 41.875 8)" stroke="#FF3838" stroke-width="2"/>
<defs>
<linearGradient id="paint0_linear_13862_27002" x1="56" y1="0" x2="56" y2="56" gradientUnits="userSpaceOnUse">
<stop/>
<stop offset="1" stop-opacity="0"/>
</linearGradient>
</defs>
</svg>
