<svg width="114" height="58" viewBox="0 0 114 58" fill="none" xmlns="http://www.w3.org/2000/svg">
<mask id="mask0_13862_26989" style="mask-type:alpha" maskUnits="userSpaceOnUse" x="1" y="1" width="112" height="56">
<rect width="112" height="56" transform="translate(1 1)" fill="url(#paint0_linear_13862_26989)"/>
</mask>
<g mask="url(#mask0_13862_26989)">
<path opacity="0.2" d="M5.0303 50.2414L1 57H113V1L111.409 10.6552H109.288C108.722 12.2644 107.548 15.4828 107.379 15.4828C107.209 15.4828 106.106 17.4138 105.576 18.3793L101.015 21.2759L98.3636 25.1379L94.1212 21.2759L91.8939 18.3793L88.7121 25.1379H85.4242L82.6667 18.3793C81.6061 17.4138 79.4424 15.4828 79.2727 15.4828C79.103 15.4828 77.7172 13.5517 77.0455 12.5862H75.3485L71.3182 15.4828L67.8182 18.3793L66.2273 25.1379L61.4545 28.0345L59.0152 30.931L56.2576 35.7586L53.6061 42.0948H52.4394L49.2576 42.6983L46.1818 35.7586L43.5303 30.931H41.9394L39.1818 28.0345L35.2576 30.931H31.5455L27.8333 35.7586L24.1212 41.5517L21.3636 47.3448L18.3939 50.2414L14.3636 47.3448L11.1818 50.2414L8 53.1379L5.0303 50.2414Z" fill="#00B512" fill-opacity="0.8"/>
</g>
<path d="M1 57L5.0303 50.2414L8 53.1379L11.1818 50.2414L14.3636 47.3448L18.3939 50.2414L21.3636 47.3448L24.1212 41.5517L27.8333 35.7586L31.5455 30.931H35.2576L39.1818 28.0345L41.9394 30.931H43.5303L46.1818 35.7586L49.2576 42.6983L52.4394 42.0948H53.6061L56.2576 35.7586L59.0152 30.931L61.4545 28.0345L66.2273 25.1379L67.8182 18.3793L71.3182 15.4828L75.3485 12.5862H77.0455C77.7172 13.5517 79.103 15.4828 79.2727 15.4828C79.4424 15.4828 81.6061 17.4138 82.6667 18.3793L85.4242 25.1379H88.7121L91.8939 18.3793L94.1212 21.2759L98.3636 25.1379L101.015 21.2759L105.576 18.3793C106.106 17.4138 107.209 15.4828 107.379 15.4828C107.548 15.4828 108.722 12.2644 109.288 10.6552H111.409L113 1" stroke="#00B512" stroke-opacity="0.8" stroke-width="2" stroke-linecap="round" stroke-linejoin="round"/>
<g opacity="0.2">
<rect x="66.75" y="4.625" width="17.25" height="17.25" rx="8.625" stroke="#00B512" stroke-opacity="0.8" stroke-width="2"/>
</g>
<rect x="70.125" y="8" width="10.5" height="10.5" rx="5.25" fill="white"/>
<rect x="71.125" y="9" width="8.5" height="8.5" rx="4.25" stroke="#00B512" stroke-opacity="0.8" stroke-width="2"/>
<defs>
<linearGradient id="paint0_linear_13862_26989" x1="56" y1="0" x2="56" y2="56" gradientUnits="userSpaceOnUse">
<stop/>
<stop offset="1" stop-opacity="0"/>
</linearGradient>
</defs>
</svg>
