<svg width="16" height="16" viewBox="0 0 16 16" fill="none" xmlns="http://www.w3.org/2000/svg">
<g clip-path="url(#clip0_40_8604)">
<path d="M7.33594 2.66666H4.53594C3.41583 2.66666 2.85578 2.66666 2.42796 2.88464C2.05163 3.07639 1.74567 3.38235 1.55392 3.75867C1.33594 4.1865 1.33594 4.74655 1.33594 5.86666V11.4667C1.33594 12.5868 1.33594 13.1468 1.55392 13.5746C1.74567 13.951 2.05163 14.2569 2.42796 14.4487C2.85578 14.6667 3.41583 14.6667 4.53594 14.6667H10.1359C11.256 14.6667 11.8161 14.6667 12.2439 14.4487C12.6202 14.2569 12.9262 13.951 13.118 13.5746C13.3359 13.1468 13.3359 12.5868 13.3359 11.4667V8.66666M5.33592 10.6667H6.45228C6.7784 10.6667 6.94146 10.6667 7.09491 10.6298C7.23096 10.5972 7.36102 10.5433 7.48032 10.4702C7.61487 10.3877 7.73017 10.2724 7.96078 10.0418L14.3359 3.66666C14.8882 3.11437 14.8882 2.21894 14.3359 1.66666C13.7837 1.11437 12.8882 1.11437 12.3359 1.66665L5.96076 8.04182C5.73016 8.27242 5.61486 8.38772 5.5324 8.52228C5.4593 8.64157 5.40542 8.77163 5.37276 8.90768C5.33592 9.06113 5.33592 9.22419 5.33592 9.55031V10.6667Z" stroke="#8B8B8B" stroke-width="1.5" stroke-linecap="round" stroke-linejoin="round"/>
</g>
<defs>
<clipPath id="clip0_40_8604">
<rect width="16" height="16" fill="white"/>
</clipPath>
</defs>
</svg>
