<svg width="24" height="24" viewBox="0 0 24 24" fill="none" xmlns="http://www.w3.org/2000/svg">
<path d="M17.7765 4.96484L12.061 9.4253L6.21484 4.96484V4.96605L6.22191 4.97208V11.2179L11.9951 15.7748L17.7765 11.3939V4.96484Z" fill="#EA4335"/>
<path d="M19.2764 3.87862L17.7754 4.9636V11.3927L22.4985 7.76645V5.58203C22.4985 5.58203 21.9252 2.46213 19.2764 3.87862Z" fill="#FBBC05"/>
<path d="M17.7754 11.3919V19.7305H21.3954C21.3954 19.7305 22.4255 19.6244 22.4997 18.4502V7.76562L17.7754 11.3919Z" fill="#34A853"/>
<path d="M6.22218 19.7388V11.217L6.21484 11.2109L6.22218 19.7388Z" fill="#C5221F"/>
<path d="M6.21602 4.96549L4.72328 3.88654C2.07449 2.47005 1.5 5.58875 1.5 5.58875V7.77316L6.21602 11.2113V4.96549Z" fill="#C5221F"/>
<path d="M6.21484 4.96484V11.2107L6.22218 11.2167V4.97087L6.21484 4.96484Z" fill="#C5221F"/>
<path d="M1.5 7.77344V18.458C1.57299 19.6334 2.60425 19.7383 2.60425 19.7383H6.22426L6.21602 11.2104L1.5 7.77344Z" fill="#4285F4"/>
</svg>
