<svg width="82" height="26" viewBox="0 0 82 26" fill="none" xmlns="http://www.w3.org/2000/svg">
<path d="M58.3296 25.2447C57.2165 25.2447 56.1663 25.0452 55.209 24.6525C53.1346 23.8013 49.3367 21.8399 47.2072 18.2683C46.2759 16.7063 46.3974 14.549 47.5328 12.4979C47.9541 11.7203 48.5207 10.9769 49.3165 10.1583C49.8369 9.62883 50.3698 9.05428 50.9344 8.44555C51.8927 7.4125 52.8837 6.34423 53.8425 5.47283L53.857 5.4604C54.9592 4.51387 56.6249 3.08398 58.6075 3.08398C58.8334 3.08398 59.0614 3.10264 59.2847 3.13942C60.5962 3.36323 61.7431 4.16158 62.6972 5.51272L62.7029 5.52101C64.0642 7.51249 64.8454 10.3686 65.4723 12.6632L65.4947 12.7451C66.0125 14.7319 66.2213 16.4405 66.133 17.9678C66.0146 20.0188 65.343 21.7057 64.138 22.9827L64.1287 22.9926C63.495 23.6376 62.9195 24.0676 62.318 24.3468C61.0855 24.9338 59.706 25.2441 58.3291 25.2441L58.3296 25.2447ZM54.2632 8.40514C53.6763 9.0004 53.0774 9.85523 52.4983 10.6821C52.1493 11.1799 51.82 11.6504 51.4964 12.0607C50.4986 13.3206 50.0478 14.4734 50.1168 15.5857C50.2399 17.5564 51.2964 19.1044 53.2571 20.1862C54.8055 21.0405 56.9043 21.5503 58.8723 21.5503C58.9362 21.5503 58.9996 21.5497 59.0624 21.5487C59.8005 21.5358 60.4274 21.3985 60.979 21.1285C61.0279 21.1042 61.0777 21.0798 61.1281 21.056C61.178 21.0322 61.2278 21.0078 61.2761 20.9835L61.2839 20.9799C62.2619 20.5006 63.0047 19.3256 63.2717 17.8367C63.6586 15.6551 63.3734 13.1336 62.3985 10.1288C61.4548 7.30837 60.2243 5.64587 58.9336 5.44641C58.8511 5.43553 58.7674 5.43035 58.6843 5.43035C57.9369 5.43035 57.2207 5.88314 56.6789 6.27895C55.7887 6.94624 54.9582 7.72801 54.2627 8.40514H54.2632Z" fill="#8B8B8B"/>
<path d="M14.1915 18.5238H6.34081L5.28384 21.8369H0L7.18639 0.754883H13.3459L20.5323 21.8369H15.2485L14.1915 18.5238ZM12.7419 14.0062L10.2659 6.26617L7.78993 14.0062H12.7419Z" fill="#8B8B8B"/>
<path d="M35.5695 6.77734V21.8362H31.0403V20.4209C30.2249 21.5352 28.7155 22.2579 26.7226 22.2579C23.6732 22.2579 21.0762 20.0893 21.0762 16.0234V6.77734H25.6053V15.3608C25.6053 17.228 26.7828 18.1014 28.2319 18.1014C29.8924 18.1014 31.0398 17.1378 31.0398 14.9992V6.77734H35.5689H35.5695Z" fill="#8B8B8B"/>
<path d="M47.195 6.47656V10.7357C45.3231 10.4347 42.6659 10.7533 42.6659 15.03V21.8365H38.1367V6.77756H42.6659V7.73652C43.2455 6.77756 45.2925 6.47656 47.195 6.47656Z" fill="#8B8B8B"/>
<path d="M82.0001 12.591V21.8371H77.471V13.2536C77.471 11.3864 76.2935 10.513 74.8439 10.513C73.1833 10.513 72.036 11.4766 72.036 13.6152V21.8371H67.5068V6.77816H72.036V8.19354C72.8514 7.07916 74.3608 6.35645 76.3538 6.35645C79.4037 6.35645 82.0001 8.52511 82.0001 12.5904V12.591Z" fill="#8B8B8B"/>
</svg>
