<svg width="16" height="16" viewBox="0 0 16 16" fill="none" xmlns="http://www.w3.org/2000/svg">
<path d="M5.0026 4.66667H6.83594M5.0026 7.33333H6.83594M5.0026 10H6.83594M9.16927 4.66667H11.0026M9.16927 7.33333H11.0026M9.16927 10H11.0026M13.3359 14V4.13333C13.3359 3.3866 13.3359 3.01323 13.1906 2.72801C13.0628 2.47713 12.8588 2.27316 12.6079 2.14532C12.3227 2 11.9493 2 11.2026 2H4.8026C4.05587 2 3.6825 2 3.39728 2.14532C3.1464 2.27316 2.94243 2.47713 2.8146 2.72801C2.66927 3.01323 2.66927 3.3866 2.66927 4.13333V14M14.6693 14H1.33594" stroke="#8B8B8B" stroke-width="1.5" stroke-linecap="round" stroke-linejoin="round"/>
</svg>
