<svg width="20" height="20" viewBox="0 0 20 20" fill="none" xmlns="http://www.w3.org/2000/svg">
<g clip-path="url(#clip0_40_8565)">
<path d="M18.3307 9.23812V10.0048C18.3297 11.8018 17.7478 13.5504 16.6718 14.9896C15.5959 16.4289 14.0835 17.4819 12.3602 17.9914C10.6369 18.5009 8.79511 18.4397 7.10945 17.8169C5.4238 17.1942 3.98461 16.0432 3.00653 14.5357C2.02845 13.0282 1.56389 11.2448 1.68213 9.45172C1.80036 7.65859 2.49507 5.95173 3.66263 4.58568C4.83019 3.21964 6.40805 2.26761 8.16089 1.87158C9.91372 1.47555 11.7476 1.65674 13.3891 2.38812M18.3307 3.33335L9.9974 11.675L7.4974 9.17502" stroke="#00B512" stroke-opacity="0.8" stroke-width="2" stroke-linecap="round" stroke-linejoin="round"/>
</g>
<defs>
<clipPath id="clip0_40_8565">
<rect width="20" height="20" fill="white"/>
</clipPath>
</defs>
</svg>
