<svg width="16" height="16" viewBox="0 0 16 16" fill="none" xmlns="http://www.w3.org/2000/svg">
<path d="M4.39648 0.5H10.79L15.0967 4.80664V14.4004C15.0965 15.0077 14.6044 15.4999 13.9971 15.5H4.39648C3.78928 15.4998 3.29709 15.0076 3.29688 14.4004V1.59961C3.29709 0.992406 3.78928 0.500211 4.39648 0.5Z" stroke="#8B8B8B"/>
<path d="M10.7969 0.199219V3.19922C10.7969 4.08287 11.5132 4.79922 12.3969 4.79922H15.3969" stroke="#8B8B8B"/>
<path d="M0 7.89961C0 7.45778 0.358172 7.09961 0.8 7.09961H11.6C12.0418 7.09961 12.4 7.45778 12.4 7.89961V12.8996C12.4 13.3414 12.0418 13.6996 11.6 13.6996H0.800001C0.358173 13.6996 0 13.3414 0 12.8996V7.89961Z" fill="#0B99FF"/>
<path d="M2.95987 11.9004H1.92862V8.9913H2.96839C3.26101 8.9913 3.5129 9.04954 3.72408 9.16602C3.93525 9.28155 4.09766 9.44774 4.21129 9.6646C4.32588 9.88145 4.38317 10.1409 4.38317 10.443C4.38317 10.746 4.32588 11.0065 4.21129 11.2243C4.09766 11.4421 3.9343 11.6092 3.72124 11.7257C3.50911 11.8422 3.25533 11.9004 2.95987 11.9004ZM2.54368 11.3734H2.9343C3.11612 11.3734 3.26906 11.3412 3.39311 11.2768C3.51811 11.2115 3.61186 11.1106 3.67436 10.9743C3.73781 10.8369 3.76953 10.6599 3.76953 10.443C3.76953 10.228 3.73781 10.0524 3.67436 9.91602C3.61186 9.77965 3.51858 9.67927 3.39453 9.61488C3.27048 9.55049 3.11754 9.51829 2.93572 9.51829H2.54368V11.3734ZM7.51207 10.4458C7.51207 10.7631 7.45194 11.033 7.33168 11.2555C7.21236 11.478 7.04948 11.648 6.84304 11.7654C6.63755 11.8819 6.40649 11.9402 6.14986 11.9402C5.89134 11.9402 5.65933 11.8815 5.45384 11.764C5.24834 11.6466 5.08594 11.4766 4.96662 11.2541C4.8473 11.0315 4.78764 10.7621 4.78764 10.4458C4.78764 10.1286 4.8473 9.85872 4.96662 9.63619C5.08594 9.41365 5.24834 9.24414 5.45384 9.12766C5.65933 9.01024 5.89134 8.95153 6.14986 8.95153C6.40649 8.95153 6.63755 9.01024 6.84304 9.12766C7.04948 9.24414 7.21236 9.41365 7.33168 9.63619C7.45194 9.85872 7.51207 10.1286 7.51207 10.4458ZM6.88849 10.4458C6.88849 10.2404 6.85772 10.0671 6.79616 9.92596C6.73556 9.78486 6.64986 9.67785 6.53906 9.60494C6.42827 9.53202 6.29853 9.49556 6.14986 9.49556C6.00118 9.49556 5.87145 9.53202 5.76065 9.60494C5.64986 9.67785 5.56368 9.78486 5.50213 9.92596C5.44152 10.0671 5.41122 10.2404 5.41122 10.4458C5.41122 10.6513 5.44152 10.8246 5.50213 10.9657C5.56368 11.1068 5.64986 11.2138 5.76065 11.2868C5.87145 11.3597 6.00118 11.3961 6.14986 11.3961C6.29853 11.3961 6.42827 11.3597 6.53906 11.2868C6.64986 11.2138 6.73556 11.1068 6.79616 10.9657C6.85772 10.8246 6.88849 10.6513 6.88849 10.4458ZM10.5344 10.0098H9.91229C9.90092 9.92927 9.87772 9.85778 9.84268 9.79528C9.80765 9.73183 9.76267 9.67785 9.70774 9.63335C9.65282 9.58884 9.58937 9.55475 9.5174 9.53107C9.44638 9.5074 9.3692 9.49556 9.28587 9.49556C9.1353 9.49556 9.00414 9.53297 8.8924 9.60778C8.78066 9.68164 8.69401 9.7896 8.63246 9.93164C8.5709 10.0727 8.54013 10.2441 8.54013 10.4458C8.54013 10.6532 8.5709 10.8275 8.63246 10.9686C8.69496 11.1097 8.78208 11.2162 8.89382 11.2882C9.00556 11.3601 9.13482 11.3961 9.28161 11.3961C9.36399 11.3961 9.44022 11.3852 9.5103 11.3635C9.58132 11.3417 9.64429 11.31 9.69922 11.2683C9.75414 11.2257 9.7996 11.1741 9.83558 11.1135C9.87251 11.0529 9.89808 10.9837 9.91229 10.9061L10.5344 10.9089C10.5183 11.0424 10.4781 11.1712 10.4137 11.2953C10.3503 11.4184 10.2646 11.5287 10.1566 11.6262C10.0496 11.7228 9.92176 11.7995 9.77308 11.8564C9.62536 11.9122 9.45821 11.9402 9.27166 11.9402C9.01219 11.9402 8.78018 11.8815 8.57564 11.764C8.37204 11.6466 8.21106 11.4766 8.09268 11.2541C7.97526 11.0315 7.91655 10.7621 7.91655 10.4458C7.91655 10.1286 7.97621 9.85872 8.09553 9.63619C8.21484 9.41365 8.37678 9.24414 8.58132 9.12766C8.78587 9.01024 9.01598 8.95153 9.27166 8.95153C9.44022 8.95153 9.59647 8.9752 9.74041 9.02255C9.8853 9.0699 10.0136 9.13903 10.1254 9.22994C10.2371 9.3199 10.328 9.43022 10.3981 9.5609C10.4691 9.69158 10.5146 9.8412 10.5344 10.0098Z" fill="white"/>
</svg>
