<svg width="33" height="32" viewBox="0 0 33 32" fill="none" xmlns="http://www.w3.org/2000/svg">
<path d="M8.5 13.3327V5.99935C8.5 4.89478 9.39543 3.99935 10.5 3.99935C11.6046 3.99935 12.5 4.89478 12.5 5.99935V13.3327C12.5 15.5418 10.7091 17.3327 8.5 17.3327C6.29086 17.3327 4.5 15.5418 4.5 13.3327V7.99935M17.1667 2.66602H20.7667C23.0069 2.66602 24.127 2.66602 24.9826 3.10199C25.7353 3.48548 26.3472 4.09741 26.7307 4.85005C27.1667 5.7057 27.1667 6.82581 27.1667 9.06602V22.9327C27.1667 25.1729 27.1667 26.293 26.7307 27.1486C26.3472 27.9013 25.7353 28.5132 24.9826 28.8967C24.127 29.3327 23.0069 29.3327 20.7667 29.3327H12.2333C9.99312 29.3327 8.87302 29.3327 8.01737 28.8967C7.26472 28.5132 6.6528 27.9013 6.26931 27.1486C5.83333 26.293 5.83333 25.1729 5.83333 22.9327V21.9993" stroke="#8B8B8B" stroke-width="2" stroke-linecap="round" stroke-linejoin="round"/>
</svg>
